# Blender 4.3.2
# www.blender.org
mtllib grassBladeA.mtl
o Grass
v 0.027603 0.004099 -0.000000
v -0.027133 0.002985 -0.000000
v -0.000973 1.294201 0.000000
v 0.028303 0.273339 -0.000000
v -0.052388 0.269218 -0.000000
v -0.014413 1.113941 0.000000
v 0.006959 1.115339 0.000000
v 0.029497 0.487074 -0.000000
v -0.053406 0.482457 -0.000000
v -0.042845 0.704991 0.000000
v 0.023684 0.709034 0.000000
v -0.027881 0.921198 0.000000
v 0.014883 0.923859 0.000000
vn -0.0000 -0.0000 -1.0000
vt 0.170200 0.786987
vt 0.193784 0.785279
vt 0.186753 0.883334
vt 0.141251 0.077944
vt 0.187023 0.076691
vt 0.194782 0.228327
vt 0.131818 0.231988
vt 0.155566 0.674025
vt 0.199044 0.671001
vt 0.203797 0.385754
vt 0.131467 0.390307
vt 0.204586 0.541312
vt 0.139639 0.545731
s 0
usemtl Material.003
f 7/1/1 6/2/1 3/3/1
f 1/4/1 2/5/1 5/6/1 4/7/1
f 13/8/1 12/9/1 6/2/1 7/1/1
f 4/7/1 5/6/1 9/10/1 8/11/1
f 8/11/1 9/10/1 10/12/1 11/13/1
f 11/13/1 10/12/1 12/9/1 13/8/1
