# Blender 4.3.2
# www.blender.org
mtllib grassBladeC.mtl
o Grass.001
v 0.000671 0.004163 -0.000000
v -0.041727 0.003299 -0.000000
v 0.042769 1.241466 0.000000
v 0.014205 0.214427 -0.000000
v -0.046033 0.211371 -0.000000
v 0.029613 1.136558 0.000000
v 0.042959 1.136137 0.000000
v 0.026419 0.433663 -0.000000
v -0.038975 0.430038 -0.000000
v -0.024134 0.667281 0.000000
v 0.039270 0.668809 0.000000
v -0.002198 0.877772 0.000000
v 0.042857 0.876796 0.000000
vn -0.0000 -0.0000 -1.0000
vt 0.766421 0.793731
vt 0.777266 0.793916
vt 0.766934 0.848670
vt 0.801629 0.091246
vt 0.840906 0.089882
vt 0.842979 0.237485
vt 0.791116 0.240852
vt 0.766054 0.658630
vt 0.801834 0.659268
vt 0.831822 0.420827
vt 0.778241 0.420115
vt 0.816194 0.552307
vt 0.771254 0.551320
s 0
usemtl Material.003
f 7/1/1 6/2/1 3/3/1
f 1/4/1 2/5/1 5/6/1 4/7/1
f 13/8/1 12/9/1 6/2/1 7/1/1
f 4/7/1 5/6/1 9/10/1 8/11/1
f 8/11/1 9/10/1 10/12/1 11/13/1
f 11/13/1 10/12/1 12/9/1 13/8/1
