# Blender 4.3.2
# www.blender.org
mtllib grassBladeC.mtl
o Grass.001
v 0.000671 0.004163 -0.000000
v -0.041727 0.003299 -0.000000
v 0.042769 1.241466 0.000000
v 0.014205 0.214427 -0.000000
v -0.046033 0.211371 -0.000000
v -0.018753 0.750895 0.000000
v 0.043660 0.748928 0.000000
v 0.029231 0.484137 -0.000000
v -0.037349 0.480381 -0.000000
vn -0.0000 -0.0000 -1.0000
vt 0.764536 0.591767
vt 0.815249 0.592631
vt 0.766934 0.848670
vt 0.801629 0.091246
vt 0.840906 0.089882
vt 0.842979 0.237485
vt 0.791116 0.240852
vt 0.775277 0.461387
vt 0.829253 0.463038
s 0
usemtl Material.003
f 7/1/1 6/2/1 3/3/1
f 1/4/1 2/5/1 5/6/1 4/7/1
f 8/8/1 9/9/1 6/2/1 7/1/1
f 4/7/1 5/6/1 9/9/1 8/8/1
