# Blender 4.3.2
# www.blender.org
mtllib grassBladeA.mtl
o Grass
v 0.027603 0.004099 -0.000000
v -0.027133 0.002985 -0.000000
v -0.000973 1.294201 0.000000
v 0.028214 0.257475 -0.000000
v -0.052312 0.253391 -0.000000
v -0.045664 0.778476 0.000000
v 0.027973 0.783291 0.000000
v 0.031193 0.517053 -0.000000
v -0.056065 0.512130 -0.000000
vn -0.0000 -0.0000 -1.0000
vt 0.139431 0.607904
vt 0.206853 0.603022
vt 0.186753 0.883334
vt 0.141251 0.077944
vt 0.187023 0.076691
vt 0.194113 0.216642
vt 0.131844 0.220237
vt 0.129569 0.414459
vt 0.206919 0.409552
s 0
usemtl Material.003
f 7/1/1 6/2/1 3/3/1
f 1/4/1 2/5/1 5/6/1 4/7/1
f 8/8/1 9/9/1 6/2/1 7/1/1
f 4/7/1 5/6/1 9/9/1 8/8/1
