# Blender 4.3.2
# www.blender.org
mtllib grassBladeB.mtl
o Grass.002
v 0.017435 0.003322 -0.000000
v -0.036870 0.002216 -0.000000
v 0.066081 1.486380 0.000000
v 0.030206 0.226230 -0.000000
v -0.040414 0.222648 -0.000000
v 0.046070 1.317383 0.000000
v 0.065874 1.316759 0.000000
v 0.040615 0.502196 -0.000000
v -0.035448 0.497905 -0.000000
v -0.011449 0.808489 0.000000
v 0.060966 0.807387 0.000000
v 0.064545 1.066766 0.000000
v 0.017191 1.067977 0.000000
vn -0.0000 -0.0000 -1.0000
vt 0.892445 0.816204
vt 0.908339 0.816325
vt 0.893413 0.910062
vt 0.926875 0.046738
vt 0.979139 0.044428
vt 0.978932 0.201296
vt 0.915891 0.205990
vt 0.891652 0.678663
vt 0.929959 0.678702
vt 0.971038 0.378753
vt 0.902819 0.384221
vt 0.951576 0.537053
vt 0.892192 0.537658
s 0
usemtl Material.003
f 7/1/1 6/2/1 3/3/1
f 1/4/1 2/5/1 5/6/1 4/7/1
f 12/8/1 13/9/1 6/2/1 7/1/1
f 4/7/1 5/6/1 9/10/1 8/11/1
f 8/11/1 9/10/1 10/12/1 11/13/1
f 11/13/1 10/12/1 13/9/1 12/8/1
