# Blender 4.3.2
# www.blender.org
mtllib barrierLowPoly.mtl
o Cube.003
v -0.380939 0.027401 1.000000
v -0.122148 1.123958 1.000000
v -0.380939 0.027401 -1.000000
v -0.122148 1.123958 -1.000000
v 0.380939 0.027401 1.000000
v 0.122148 1.123958 1.000000
v 0.380939 0.027401 -1.000000
v 0.122148 1.123958 -1.000000
v -0.201783 0.365651 1.000000
v -0.201783 0.365651 -1.000000
v 0.201783 0.365651 -1.000000
v 0.201783 0.365651 1.000000
v -0.376009 0.114507 -1.000000
v 0.376009 0.114507 -1.000000
v 0.376009 0.114507 1.000000
v -0.376009 0.114507 1.000000
vn -0.9945 0.1044 -0.0000
vn -0.0000 -0.0000 -1.0000
vn 0.9945 0.1044 -0.0000
vn -0.0000 -0.0000 1.0000
vn -0.0000 -1.0000 -0.0000
vn -0.0000 1.0000 -0.0000
vn 0.8216 0.5700 -0.0000
vn -0.8216 0.5700 -0.0000
vn -0.9984 0.0565 -0.0000
vn 0.9984 0.0565 -0.0000
vt 0.231002 0.612073
vt 0.000414 0.612073
vt 0.000414 0.000414
vt 0.231002 0.000414
vt 0.055205 0.844813
vt 0.079560 0.612900
vt 0.154272 0.612900
vt 0.178627 0.844813
vt 0.576316 0.612073
vt 0.345728 0.612073
vt 0.345728 0.000414
vt 0.576316 0.000414
vt 0.289037 0.844813
vt 0.313392 0.612900
vt 0.388104 0.612900
vt 0.412459 0.844813
vt 0.924046 0.612073
vt 0.691042 0.612073
vt 0.691042 0.000414
vt 0.924046 0.000414
vt 0.999586 0.612073
vt 0.924874 0.612073
vt 0.924874 0.000414
vt 0.999586 0.000414
vt 0.235753 0.921621
vt 0.465743 0.921621
vt 0.664051 0.612073
vt 0.664051 0.000414
vt 0.001921 0.921621
vt 0.231911 0.921621
vt 0.318737 0.612073
vt 0.318737 0.000414
vt 0.344900 0.612073
vt 0.344900 0.000414
vt 0.000414 0.948260
vt 0.233418 0.948260
vt 0.690214 0.612073
vt 0.690214 0.000414
vt 0.234246 0.948260
vt 0.467250 0.948260
s 0
usemtl Material.005
f 9/1/1 2/2/1 4/3/1 10/4/1
f 10/5/2 4/6/2 8/7/2 11/8/2
f 11/9/3 8/10/3 6/11/3 12/12/3
f 12/13/4 6/14/4 2/15/4 9/16/4
f 3/17/5 7/18/5 5/19/5 1/20/5
f 8/21/6 4/22/6 2/23/6 6/24/6
f 15/25/4 12/13/4 9/16/4 16/26/4
f 14/27/7 11/9/7 12/12/7 15/28/7
f 13/29/2 10/5/2 11/8/2 14/30/2
f 16/31/8 9/1/8 10/4/8 13/32/8
f 1/33/9 16/31/9 13/32/9 3/34/9
f 3/35/2 13/29/2 14/30/2 7/36/2
f 7/37/10 14/27/10 15/28/10 5/38/10
f 5/39/4 15/25/4 16/26/4 1/40/4
