# Blender 4.3.2
# www.blender.org
mtllib barrier.mtl
o Plane.001
v -0.149016 0.000000 0.149016
v 0.149016 0.000000 0.149016
v -0.149016 0.000000 -0.149016
v 0.149016 0.000000 -0.149016
v -0.077297 0.089090 0.077297
v 0.077297 0.089090 0.077297
v -0.077297 0.089090 -0.077297
v 0.077297 0.089090 -0.077297
v -0.149016 0.089090 -0.149016
v -0.149016 0.089090 0.149016
v 0.149016 0.089090 0.149016
v 0.149016 0.089090 -0.149016
v -0.077297 1.135718 0.077297
v 0.077297 1.135718 0.077297
v -0.077297 1.135718 -0.077297
v 0.077297 1.135718 -0.077297
v -0.075647 1.065213 0.000000
v -0.075647 0.696261 0.000000
v -0.075647 1.065213 -1.500000
v -0.075647 0.696261 -1.500000
v -0.136772 0.972975 0.000000
v -0.136772 0.788499 0.000000
v -0.136772 0.788499 -1.500000
v -0.136772 0.972975 -1.500000
v -0.112039 0.825821 0.000000
v -0.112039 0.935653 0.000000
v -0.112039 0.935653 -1.500000
v -0.112039 0.825821 -1.500000
v -0.075647 1.065213 1.500000
v -0.075647 0.696261 1.500000
v -0.136772 0.788499 1.500000
v -0.136772 0.972975 1.500000
v -0.112039 0.935653 1.500000
v -0.112039 0.825821 1.500000
v -0.100654 1.081785 0.000000
v -0.100654 0.679689 0.000000
v -0.100654 1.081785 -1.500000
v -0.100654 0.679689 -1.500000
v -0.166772 0.972975 0.000000
v -0.166772 0.788499 0.000000
v -0.166772 0.788499 -1.500000
v -0.166772 0.972975 -1.500000
v -0.140764 0.834475 0.000000
v -0.140764 0.926999 0.000000
v -0.140764 0.926999 -1.500000
v -0.140764 0.834475 -1.500000
v -0.100654 1.081785 1.500000
v -0.100654 0.679689 1.500000
v -0.166772 0.788499 1.500000
v -0.166772 0.972975 1.500000
v -0.140764 0.926999 1.500000
v -0.140764 0.834475 1.500000
vn -0.0000 -1.0000 -0.0000
vn -0.0000 -0.0000 -1.0000
vn 1.0000 -0.0000 -0.0000
vn -1.0000 -0.0000 -0.0000
vn -0.0000 -0.0000 1.0000
vn -0.0000 1.0000 -0.0000
vn 0.8336 0.5524 -0.0000
vn 0.8336 -0.5524 -0.0000
vn -0.8546 -0.5193 -0.0000
vn -0.8546 0.5193 -0.0000
vn -0.8704 0.4924 -0.0000
vn -0.8704 -0.4924 -0.0000
vn 0.5524 0.8336 -0.0000
vn 0.5524 -0.8336 -0.0000
vt 0.000000 0.000000
vt 0.000000 1.000000
vt 1.000000 1.000000
vt 1.000000 0.000000
vt 0.744703 0.744703
vt 0.255297 0.744703
vt 0.255297 0.255297
vt 0.744703 0.255297
vt 0.750000 0.000000
vt 0.750000 1.000000
vt 0.250000 0.000000
vt 0.250000 1.000000
vt 0.648843 0.000000
vt 0.648843 1.000000
vt 0.351157 1.000000
vt 0.351157 0.000000
s 0
f 1/1/1 3/2/1 4/3/1 2/4/1
f 8/5/2 7/6/2 15/6/2 16/5/2
f 2/4/3 4/3/3 12/3/3 11/4/3
f 3/2/4 1/1/4 10/1/4 9/2/4
f 4/3/2 3/2/2 9/2/2 12/3/2
f 1/1/5 2/4/5 11/4/5 10/1/5
f 5/7/6 7/6/6 9/2/6 10/1/6
f 6/8/6 5/7/6 10/1/6 11/4/6
f 8/5/6 6/8/6 11/4/6 12/3/6
f 7/6/6 8/5/6 12/3/6 9/2/6
f 13/7/6 14/8/6 16/5/6 15/6/6
f 5/7/5 6/8/5 14/8/5 13/7/5
f 6/8/3 8/5/3 16/5/3 14/8/3
f 7/6/4 5/7/4 13/7/4 15/6/4
f 22/9/7 18/4/7 20/3/7 23/10/7
f 17/1/8 21/11/8 24/12/8 19/2/8
f 25/13/8 22/9/8 23/10/8 28/14/8
f 25/13/3 28/14/3 27/15/3 26/16/3
f 21/11/7 26/16/7 27/15/7 24/12/7
f 22/9/7 31/10/7 30/3/7 18/4/7
f 17/1/8 29/2/8 32/12/8 21/11/8
f 25/13/8 34/14/8 31/10/8 22/9/8
f 25/13/3 26/16/3 33/15/3 34/14/3
f 21/11/7 32/12/7 33/15/7 26/16/7
f 40/9/9 41/10/9 38/3/9 36/4/9
f 35/1/10 37/2/10 42/12/10 39/11/10
f 43/13/11 46/14/11 41/10/11 40/9/11
f 43/13/4 44/16/4 45/15/4 46/14/4
f 39/11/12 42/12/12 45/15/12 44/16/12
f 40/9/9 36/4/9 48/3/9 49/10/9
f 35/1/10 39/11/10 50/12/10 47/2/10
f 43/13/11 40/9/11 49/10/11 52/14/11
f 43/13/4 52/14/4 51/15/4 44/16/4
f 39/11/12 44/16/12 51/15/12 50/12/12
f 17/1/13 19/2/13 37/2/13 35/1/13
f 20/3/14 18/4/14 36/4/14 38/3/14
f 19/2/2 24/12/2 42/12/2 37/2/2
f 23/10/2 20/3/2 38/3/2 41/10/2
f 27/15/2 28/14/2 46/14/2 45/15/2
f 24/12/2 27/15/2 45/15/2 42/12/2
f 28/14/2 23/10/2 41/10/2 46/14/2
f 29/2/13 17/1/13 35/1/13 47/2/13
f 18/4/14 30/3/14 48/3/14 36/4/14
f 32/12/5 29/2/5 47/2/5 50/12/5
f 30/3/5 31/10/5 49/10/5 48/3/5
f 34/14/5 33/15/5 51/15/5 52/14/5
f 33/15/5 32/12/5 50/12/5 51/15/5
f 31/10/5 34/14/5 52/14/5 49/10/5
