# Blender 4.3.2
# www.blender.org
mtllib barrier.mtl
o Plane
v -0.149016 0.000000 -0.850984
v 0.149016 0.000000 -0.850984
v -0.149016 0.000000 -1.149016
v 0.149016 0.000000 -1.149016
v -0.077297 0.089090 -0.922703
v 0.077297 0.089090 -0.922703
v -0.077297 0.089090 -1.077297
v 0.077297 0.089090 -1.077297
v -0.149016 0.089090 -1.149016
v -0.149016 0.089090 -0.850984
v 0.149016 0.089090 -0.850984
v 0.149016 0.089090 -1.149016
v -0.077297 1.135718 -0.922703
v 0.077297 1.135718 -0.922703
v -0.077297 1.135718 -1.077297
v 0.077297 1.135718 -1.077297
v -0.149016 0.000000 0.850984
v 0.149016 0.000000 0.850984
v -0.149016 0.000000 1.149016
v 0.149016 0.000000 1.149016
v -0.077297 0.089090 0.922703
v 0.077297 0.089090 0.922703
v -0.077297 0.089090 1.077297
v 0.077297 0.089090 1.077297
v -0.149016 0.089090 1.149016
v -0.149016 0.089090 0.850984
v 0.149016 0.089090 0.850984
v 0.149016 0.089090 1.149016
v -0.077297 1.135718 0.922703
v 0.077297 1.135718 0.922703
v -0.077297 1.135718 1.077297
v 0.077297 1.135718 1.077297
v -0.075959 1.065213 0.000000
v -0.075959 0.696261 0.000000
v -0.075959 1.065213 -2.000000
v -0.075959 0.696261 -2.000000
v -0.137084 0.972975 0.000000
v -0.137084 0.788499 0.000000
v -0.137084 0.788499 -2.000000
v -0.137084 0.972975 -2.000000
v -0.112351 0.825821 0.000000
v -0.112351 0.935653 0.000000
v -0.112351 0.935653 -2.000000
v -0.112351 0.825821 -2.000000
v -0.075959 1.065213 2.000000
v -0.075959 0.696261 2.000000
v -0.137084 0.788499 2.000000
v -0.137084 0.972975 2.000000
v -0.112351 0.935653 2.000000
v -0.112351 0.825821 2.000000
v -0.100967 1.081785 0.000000
v -0.100967 0.679689 0.000000
v -0.100967 1.081785 -2.000000
v -0.100967 0.679689 -2.000000
v -0.167084 0.972975 0.000000
v -0.167084 0.788499 0.000000
v -0.167084 0.788499 -2.000000
v -0.167084 0.972975 -2.000000
v -0.141076 0.834475 0.000000
v -0.141076 0.926999 0.000000
v -0.141076 0.926999 -2.000000
v -0.141076 0.834475 -2.000000
v -0.100967 1.081785 2.000000
v -0.100967 0.679689 2.000000
v -0.167084 0.788499 2.000000
v -0.167084 0.972975 2.000000
v -0.141076 0.926999 2.000000
v -0.141076 0.834475 2.000000
vn -0.0000 -1.0000 -0.0000
vn -0.0000 -0.0000 -1.0000
vn 1.0000 -0.0000 -0.0000
vn -1.0000 -0.0000 -0.0000
vn -0.0000 -0.0000 1.0000
vn -0.0000 1.0000 -0.0000
vn 0.8336 0.5524 -0.0000
vn 0.8336 -0.5524 -0.0000
vn -0.8546 -0.5193 -0.0000
vn -0.8546 0.5193 -0.0000
vn -0.8704 0.4924 -0.0000
vn -0.8704 -0.4924 -0.0000
vn 0.5524 0.8336 -0.0000
vn 0.5524 -0.8336 -0.0000
vt 0.000000 0.000000
vt 0.000000 1.000000
vt 1.000000 1.000000
vt 1.000000 0.000000
vt 0.744703 0.744703
vt 0.255297 0.744703
vt 0.255297 0.255297
vt 0.744703 0.255297
vt 0.750000 0.000000
vt 0.750000 1.000000
vt 0.250000 0.000000
vt 0.250000 1.000000
vt 0.648843 0.000000
vt 0.648843 1.000000
vt 0.351157 1.000000
vt 0.351157 0.000000
s 0
f 1/1/1 3/2/1 4/3/1 2/4/1
f 8/5/2 7/6/2 15/6/2 16/5/2
f 2/4/3 4/3/3 12/3/3 11/4/3
f 3/2/4 1/1/4 10/1/4 9/2/4
f 4/3/2 3/2/2 9/2/2 12/3/2
f 1/1/5 2/4/5 11/4/5 10/1/5
f 5/7/6 7/6/6 9/2/6 10/1/6
f 6/8/6 5/7/6 10/1/6 11/4/6
f 8/5/6 6/8/6 11/4/6 12/3/6
f 7/6/6 8/5/6 12/3/6 9/2/6
f 13/7/6 14/8/6 16/5/6 15/6/6
f 5/7/5 6/8/5 14/8/5 13/7/5
f 6/8/3 8/5/3 16/5/3 14/8/3
f 7/6/4 5/7/4 13/7/4 15/6/4
f 17/1/1 18/4/1 20/3/1 19/2/1
f 24/5/5 32/5/5 31/6/5 23/6/5
f 18/4/3 27/4/3 28/3/3 20/3/3
f 19/2/4 25/2/4 26/1/4 17/1/4
f 20/3/5 28/3/5 25/2/5 19/2/5
f 17/1/2 26/1/2 27/4/2 18/4/2
f 21/7/6 26/1/6 25/2/6 23/6/6
f 22/8/6 27/4/6 26/1/6 21/7/6
f 24/5/6 28/3/6 27/4/6 22/8/6
f 23/6/6 25/2/6 28/3/6 24/5/6
f 29/7/6 31/6/6 32/5/6 30/8/6
f 21/7/2 29/7/2 30/8/2 22/8/2
f 22/8/3 30/8/3 32/5/3 24/5/3
f 23/6/4 31/6/4 29/7/4 21/7/4
f 38/9/7 34/4/7 36/3/7 39/10/7
f 33/1/8 37/11/8 40/12/8 35/2/8
f 41/13/8 38/9/8 39/10/8 44/14/8
f 41/13/3 44/14/3 43/15/3 42/16/3
f 37/11/7 42/16/7 43/15/7 40/12/7
f 38/9/7 47/10/7 46/3/7 34/4/7
f 33/1/8 45/2/8 48/12/8 37/11/8
f 41/13/8 50/14/8 47/10/8 38/9/8
f 41/13/3 42/16/3 49/15/3 50/14/3
f 37/11/7 48/12/7 49/15/7 42/16/7
f 56/9/9 57/10/9 54/3/9 52/4/9
f 51/1/10 53/2/10 58/12/10 55/11/10
f 59/13/11 62/14/11 57/10/11 56/9/11
f 59/13/4 60/16/4 61/15/4 62/14/4
f 55/11/12 58/12/12 61/15/12 60/16/12
f 56/9/9 52/4/9 64/3/9 65/10/9
f 51/1/10 55/11/10 66/12/10 63/2/10
f 59/13/11 56/9/11 65/10/11 68/14/11
f 59/13/4 68/14/4 67/15/4 60/16/4
f 55/11/12 60/16/12 67/15/12 66/12/12
f 33/1/13 35/2/13 53/2/13 51/1/13
f 36/3/14 34/4/14 52/4/14 54/3/14
f 35/2/2 40/12/2 58/12/2 53/2/2
f 39/10/2 36/3/2 54/3/2 57/10/2
f 43/15/2 44/14/2 62/14/2 61/15/2
f 40/12/2 43/15/2 61/15/2 58/12/2
f 44/14/2 39/10/2 57/10/2 62/14/2
f 45/2/13 33/1/13 51/1/13 63/2/13
f 34/4/14 46/3/14 64/3/14 52/4/14
f 48/12/5 45/2/5 63/2/5 66/12/5
f 46/3/5 47/10/5 65/10/5 64/3/5
f 50/14/5 49/15/5 67/15/5 68/14/5
f 49/15/5 48/12/5 66/12/5 67/15/5
f 47/10/5 50/14/5 68/14/5 65/10/5
